<?xml version="1.0" encoding="UTF-8"?>
<svg width="104px" height="34px" viewBox="0 0 104 34" version="1.1" xmlns="http://www.w3.org/2000/svg" xmlns:xlink="http://www.w3.org/1999/xlink">
    <!-- Generator: Sketch 46.2 (44496) - http://www.bohemiancoding.com/sketch -->
    <title>LOGO Copy 6</title>
    <desc>Created with Sketch.</desc>
    <defs>
        <polygon id="path-1" points="0.00317469959 33.329488 60.090116 33.329488 60.090116 0.0845549455 0.00317469959 0.0845549455 0.00317469959 33.329488"></polygon>
    </defs>
    <g id="iPhone" stroke="none" stroke-width="1" fill="none" fill-rule="evenodd">
        <g id="Mobile-Homepage" transform="translate(-108.000000, -5014.000000)">
            <g id="Footer---Main" transform="translate(-81.000000, 4992.000000)">
                <g id="LOGO-Copy-6" transform="translate(189.000000, 22.000000)">
                    <g id="Group-3" transform="translate(43.525393, 0.088418)">
                        <mask id="mask-2" fill="white">
                            <use xlink:href="#path-1"></use>
                        </mask>
                        <g id="Clip-2"></g>
                        <path d="M60.0901813,16.7077248 L60.0901813,16.7063852 C60.0895289,7.52636569 44.9678117,0.0845549455 26.314193,0.0845549455 C15.6770675,0.0845549455 6.19419439,2.50666005 0.00317469959,6.28851994 C5.06375112,5.06172639 10.9791723,4.35505579 17.303262,4.35505579 C35.957533,4.35505579 51.0795764,10.4893585 51.0795764,18.0564274 C51.0795764,25.6231615 35.957533,31.7577991 17.303262,31.7577991 C15.1376119,31.7577991 13.0225153,31.6717259 10.97004,31.5139809 C15.5756342,32.6721169 20.7875452,33.329555 26.314193,33.329555 C44.9678117,33.329555 60.0895289,25.8877443 60.0901813,16.7077248" id="Fill-1" fill="#FFFFFF" mask="url(#mask-2)"></path>
                    </g>
                    <path d="M80.6542032,14.5755891 L80.6542032,11.1628055 L78.1548994,12.6555216 L78.1548994,14.5755891 L77.0117362,14.5755891 L77.0117362,16.6142166 L78.1548994,16.6142166 L78.1548994,20.8281168 C78.1548994,21.7320523 78.1813177,22.3328898 78.2348067,22.6299593 C78.2997109,23.0486031 78.4164734,23.3808387 78.5847679,23.6266663 C78.7530624,23.872159 79.0175718,24.0724381 79.3779699,24.2271689 C79.738368,24.3818996 80.1431228,24.4592649 80.5919081,24.4592649 C81.3247719,24.4592649 81.9803377,24.3319972 82.5595839,24.0771269 L82.3469327,22.0930906 C81.9098889,22.2565291 81.5759091,22.3385833 81.3456457,22.3385833 C81.1799604,22.3385833 81.039715,22.296384 80.9245833,22.2113156 C80.8094516,22.1262472 80.735415,22.0187395 80.7027998,21.8881227 C80.6701846,21.7578407 80.6542032,21.2983374 80.6542032,20.5096126 L80.6542032,16.6142166 L82.3557388,16.6142166 L82.3557388,14.5755891 L80.6542032,14.5755891 Z" id="Fill-4" fill="#FFFFFF"></path>
                    <path d="M66.9434852,10.898926 L66.9434852,24.2409339 L69.4339829,24.2409339 L69.4339829,19.3990681 C69.4339829,18.5862294 69.5089979,17.9719954 69.6600063,17.556031 C69.8103624,17.1407364 70.0484535,16.8296004 70.373301,16.6232928 C70.6981485,16.41732 71.0676789,16.3138313 71.4812398,16.3138313 C71.8416379,16.3138313 72.1413717,16.3942109 72.3807674,16.5549701 C72.620163,16.7160642 72.7868268,16.9327542 72.881737,17.2057099 C72.975995,17.4786656 73.023287,18.1220373 73.023287,19.1351551 L73.023287,24.2409339 L75.5137847,24.2409339 L75.5137847,18.5708233 C75.5137847,17.7033935 75.4707326,17.063371 75.3852808,16.6504209 C75.2995028,16.2381405 75.1400144,15.862031 74.9068156,15.5220923 C74.6732907,15.1824885 74.3262648,14.9031694 73.8654118,14.6848049 C73.4045589,14.4664403 72.8872816,14.357258 72.3142323,14.357258 C71.1974874,14.357258 70.2372956,14.8395356 69.4339829,15.8040907 L69.4339829,10.898926 L66.9434852,10.898926 Z" id="Fill-6" fill="#FFFFFF"></path>
                    <path d="M61.7394671,21.4423843 C61.3197093,21.9306904 60.8056936,22.1748434 60.1974198,22.1748434 C59.6302413,22.1748434 59.1530807,21.9367188 58.7659382,21.4604697 C58.3791217,20.9842206 58.1857135,20.2333413 58.1857135,19.2078316 C58.1857135,18.2312195 58.3791217,17.504789 58.7659382,17.028205 C59.1530807,16.5519559 59.644592,16.3138313 60.2417765,16.3138313 C60.855921,16.3138313 61.3643922,16.5566447 61.7658854,17.0419365 C62.1677048,17.5272283 62.3686146,18.2707395 62.3686146,19.2718004 C62.3686146,20.2306619 62.1588987,20.9540783 61.7394671,21.4423843 L61.7394671,21.4423843 Z M62.4837463,14.5756226 L62.4837463,15.9316933 C61.7273995,14.8820698 60.7672076,14.357258 59.6034968,14.357258 C58.4750105,14.357258 57.5308,14.7849445 56.771844,15.6406522 C56.0125619,16.4960251 55.6329208,17.7338708 55.6329208,19.3535196 C55.6329208,20.6459565 55.9222177,21.7260573 56.5014639,22.5934871 C57.2398723,23.6916733 58.2414855,24.2409339 59.5059773,24.2409339 C60.6403344,24.2409339 61.5799787,23.7188014 62.324584,22.6755413 L62.324584,24.0862031 C62.324584,24.6562284 62.2860981,25.047744 62.2091262,25.2600801 C62.0969298,25.5574846 61.9312446,25.772835 61.7130488,25.906466 C61.3878751,26.1067452 60.9006038,26.2065498 60.2505826,26.2065498 C59.7421115,26.2065498 59.3699719,26.1157879 59.1338378,25.9335941 C58.9622817,25.8063265 58.8530208,25.5725558 58.8060549,25.2326171 L55.9610299,24.8779421 C55.9551591,24.9991814 55.9518976,25.1023352 55.9518976,25.1874036 C55.9518976,26.0488049 56.2858774,26.7601643 56.9535108,27.3214818 C57.6211442,27.8824644 58.7525659,28.163458 60.3481021,28.163458 C61.1928361,28.163458 61.891454,28.0723612 62.4439557,27.8901674 C62.9964574,27.7083086 63.4380674,27.4564525 63.7691118,27.1349342 C64.0998301,26.8134158 64.3568379,26.3703233 64.5401354,25.8063265 C64.7231068,25.2416598 64.8147555,24.3893012 64.8147555,23.2489157 L64.8147555,14.5756226 L62.4837463,14.5756226 Z" id="Fill-8" fill="#FFFFFF"></path>
                    <path d="M51.4748726,13.2650668 L53.9653702,13.2650668 L53.9653702,10.8988925 L51.4748726,10.8988925 L51.4748726,13.2650668 Z M51.4748726,24.2405655 L53.9653702,24.2405655 L53.9653702,14.5755891 L51.4748726,14.5755891 L51.4748726,24.2405655 Z" id="Fill-10" fill="#FFFFFF"></path>
                    <polygon id="Fill-12" fill="#FFFFFF" points="46.7580605 24.2409004 49.2485581 24.2409004 49.2485581 10.8988925 46.7580605 10.8988925"></polygon>
                    <path d="M42.8808618,22.1873022 C42.4405565,22.8038807 41.9131685,23.1123374 41.2986979,23.1123374 C40.6431321,23.1123374 40.0935657,22.8072298 39.650325,22.1966798 C39.2070843,21.5861298 38.985627,20.6550662 38.985627,19.4038239 C38.985627,18.1646384 39.2041489,17.2379287 39.6415189,16.6243645 C40.0785627,16.0108002 40.6075815,15.7040181 41.2279228,15.7040181 C41.8838148,15.7040181 42.433055,16.0094606 42.8762957,16.6200106 C43.3195364,17.2305606 43.5409937,18.15861 43.5409937,19.4038239 C43.5409937,20.6430093 43.3208411,21.5707237 42.8808618,22.1873022 M43.8423583,15.6313416 C43.1512419,14.7819972 42.2915049,14.357325 41.2634734,14.357325 C40.2175036,14.357325 39.3535266,14.7819972 38.6708902,15.6313416 C37.9885799,16.480686 37.6474248,17.7399663 37.6474248,19.4081778 C37.6474248,21.0706957 37.9911891,22.3283014 38.6796963,23.1803251 C39.3678773,24.0330186 40.229245,24.4593654 41.2634734,24.4593654 C42.3149879,24.4593654 43.1805956,24.0346932 43.8602967,23.1850139 C44.5396716,22.3356695 44.8795221,21.0432327 44.8795221,19.3080382 C44.8795221,17.7061398 44.5338008,16.480686 43.8423583,15.6313416" id="Fill-13" fill="#FFFFFF"></path>
                    <path d="M31.1687715,24.2409339 L31.1687715,18.9566454 C31.1687715,17.7904714 31.3546782,16.9675853 31.727144,16.4876522 C32.0992836,16.0080539 32.5986225,15.7679199 33.2248345,15.7679199 C33.5555528,15.7679199 33.8464805,15.8573422 34.0979438,16.0365217 C34.3487548,16.2157012 34.5333569,16.4695668 34.6517501,16.7974485 C34.7698172,17.1253303 34.8291769,17.6444485 34.8291769,18.3551381 L34.8291769,24.2409339 L36.1318285,24.2409339 L36.1318285,18.2978676 C36.1318285,17.405989 36.0786657,16.7448669 35.9723401,16.3138313 C35.8663406,15.8831307 35.7055476,15.5328096 35.4906134,15.2628681 C35.2750268,14.9929267 34.9919268,14.7745621 34.6409871,14.6074395 C34.2900474,14.4406519 33.9081233,14.357258 33.4952147,14.357258 C32.964239,14.357258 32.4939276,14.4885447 32.0842806,14.751118 C31.6743073,15.0133565 31.3276076,15.4102307 31.0445076,15.9410709 L31.0445076,14.5756226 L29.8657938,14.5756226 L29.8657938,24.2409339 L31.1687715,24.2409339 Z" id="Fill-14" fill="#FFFFFF"></path>
                    <path d="M26.3249884,22.1873022 C25.8846831,22.8038807 25.3576212,23.1123374 24.7431506,23.1123374 C24.0872587,23.1123374 23.5376923,22.8072298 23.0944516,22.1966798 C22.651537,21.5861298 22.4300797,20.6550662 22.4300797,19.4038239 C22.4300797,18.1646384 22.6482755,17.2379287 23.0856455,16.6243645 C23.5230155,16.0108002 24.0517081,15.7040181 24.6720494,15.7040181 C25.3282675,15.7040181 25.8775077,16.0094606 26.3204223,16.6200106 C26.7639892,17.2305606 26.9854465,18.15861 26.9854465,19.4038239 C26.9854465,20.6430093 26.7652938,21.5707237 26.3249884,22.1873022 M27.2868111,15.6313416 C26.5953685,14.7819972 25.7359577,14.357325 24.7076,14.357325 C23.6619563,14.357325 22.7976532,14.7819972 22.1153429,15.6313416 C21.4330327,16.480686 21.0915514,17.7399663 21.0915514,19.4081778 C21.0915514,21.0706957 21.4356419,22.3283014 22.124149,23.1803251 C22.81233,24.0330186 23.6733716,24.4593654 24.7076,24.4593654 C25.7591145,24.4593654 26.6250484,24.0346932 27.3044233,23.1850139 C27.9837982,22.3356695 28.3236487,21.0432327 28.3236487,19.3080382 C28.3236487,17.7061398 27.9779274,16.480686 27.2868111,15.6313416" id="Fill-15" fill="#FFFFFF"></path>
                    <path d="M18.0054347,22.5252984 C17.6538427,22.916814 17.229845,23.1124044 16.7334414,23.1124044 C16.1013586,23.1124044 15.5827767,22.818349 15.1783481,22.2295685 C14.7732671,21.6411229 14.5710528,20.6886247 14.5710528,19.3720739 C14.5710528,18.0977224 14.7823994,17.1679985 15.2047664,16.5825671 C15.6271334,15.9971357 16.1603921,15.7040851 16.8045426,15.7040851 C17.2357157,15.7040851 17.6049199,15.8655141 17.9124814,16.1887071 C18.2193905,16.5119 18.4353032,16.9995362 18.5595672,17.6519506 L19.8266682,17.4151657 C19.6730505,16.3960194 19.3227632,15.6314086 18.7764583,15.121668 C18.2298274,14.6119274 17.557954,14.3570571 16.7601859,14.3570571 C15.7262836,14.3570571 14.8795927,14.7773754 14.2207654,15.617677 C13.5619381,16.4579787 13.2328506,17.7185987 13.2328506,19.399202 C13.2328506,21.0677484 13.5593289,22.3283684 14.2119593,23.1803921 C14.8649159,24.0330856 15.6966038,24.4594324 16.7070231,24.4594324 C17.5400156,24.4594324 18.2533103,24.1559994 18.8472334,23.5491335 C19.4411564,22.9426025 19.8119914,22.0627808 19.9597383,20.9096686 L18.6746989,20.7003467 C18.5801148,21.5255772 18.3570267,22.1337828 18.0054347,22.5252984" id="Fill-16" fill="#FFFFFF"></path>
                    <path d="M3.8359512,23.1123039 C3.20973912,23.1123039 2.677785,22.8363339 2.24074115,22.2840592 C1.80337114,21.7321193 1.55810474,20.9129172 1.50494194,19.826788 L7.26576698,19.826788 L7.27457309,19.3900589 C7.27457309,17.7580182 6.94091946,16.5111297 6.27328606,15.6497284 C5.60565265,14.7879922 4.77233396,14.3572915 3.77365615,14.3572915 C2.72801243,14.3572915 1.86370929,14.7953603 1.18172519,15.6721677 C0.499088782,16.5489751 0.157607504,17.821652 0.157607504,19.4901984 C0.157607504,21.0977903 0.496153413,22.3282679 1.17291908,23.1806265 C1.84903244,24.0329852 2.73388316,24.4593319 3.8271451,24.4593319 C4.69568821,24.4593319 5.42365976,24.1967586 6.01171205,23.6719468 C6.59976434,23.147135 7.00582374,22.3691276 7.23054255,21.3375894 L5.88320811,21.1282676 C5.49900091,22.4508468 4.81669065,23.1123039 3.8359512,23.1123039 M2.26715947,16.4551989 C2.68072037,15.954501 3.18005927,15.7039846 3.76485004,15.7039846 C4.41487123,15.7039846 4.94943457,16.0044034 5.36919236,16.6052408 C5.6584893,17.0178561 5.83298068,17.6424725 5.89201422,18.4797599 L1.58484922,18.4797599 C1.62594438,17.6307505 1.85359857,16.9555619 2.26715947,16.4551989" id="Fill-17" fill="#FFFFFF"></path>
                    <polygon id="Fill-18" fill="#FFFFFF" points="8.47856367 19.9305446 12.0841754 19.9305446 12.0841754 18.8859448 8.47856367 18.8859448"></polygon>
                    <path d="M86.297907,15.4395358 C86.0095885,15.4395358 85.7424699,15.3866192 85.496225,15.2794464 C85.2499802,15.1726085 85.0363505,15.024911 84.8556623,14.8370237 C84.6746478,14.6491364 84.533424,14.4277576 84.4319906,14.1718826 C84.3286004,13.9163425 84.2780468,13.6376932 84.2780468,13.3366046 C84.2780468,13.043554 84.3286004,12.7705983 84.4319906,12.5170677 C84.533424,12.263872 84.6746478,12.0441678 84.8556623,11.8589598 C85.0363505,11.673082 85.2499802,11.5267241 85.496225,11.4195513 C85.7424699,11.3127134 86.0095885,11.259462 86.297907,11.259462 C86.5806809,11.259462 86.8438856,11.3127134 87.0881736,11.4195513 C87.3318092,11.5267241 87.5444604,11.673082 87.7251487,11.8589598 C87.9064893,12.0441678 88.0483654,12.263872 88.1504511,12.5170677 C88.2525367,12.7705983 88.3040687,13.043554 88.3040687,13.3366046 C88.3040687,13.6376932 88.2525367,13.9163425 88.1504511,14.1718826 C88.0483654,14.4277576 87.9064893,14.6491364 87.7251487,14.8370237 C87.5444604,15.024911 87.3318092,15.1726085 87.0881736,15.2794464 C86.8438856,15.3866192 86.5806809,15.4395358 86.297907,15.4395358 M88.0219471,15.095913 C88.2450352,14.875204 88.4218096,14.61531 88.5522705,14.3162309 C88.6837098,14.0171519 88.7492664,13.6906098 88.7492664,13.3372745 L88.7492664,13.3366046 C88.7492664,12.9909724 88.6837098,12.6701238 88.5522705,12.3730543 C88.4218096,12.0759847 88.2450352,11.8184351 88.0219471,11.5997356 C87.8001637,11.3817059 87.541525,11.2098946 87.2447266,11.0856411 C86.9492328,10.9610527 86.6335175,10.8990935 86.297907,10.8990935 C85.961318,10.8990935 85.6446243,10.9610527 85.3458689,11.0856411 C85.048092,11.2098946 84.7861919,11.3817059 84.5621253,11.5997356 C84.3380588,11.8184351 84.1603059,12.0759847 84.0288666,12.3730543 C83.8984058,12.6704588 83.8335015,12.9913073 83.8335015,13.3366046 C83.8335015,13.6902749 83.8984058,14.0171519 84.0288666,14.3162309 C84.1603059,14.61531 84.3380588,14.875204 84.5621253,15.095913 C84.7861919,15.316622 85.048092,15.4877635 85.3458689,15.6100075 C85.6446243,15.7325864 85.961318,15.7938758 86.297907,15.7938758 C86.6335175,15.7938758 86.9492328,15.7325864 87.2447266,15.6100075 C87.541525,15.4877635 87.8001637,15.316622 88.0219471,15.095913" id="Fill-19" fill="#FFFFFF"></path>
                    <path d="M86.251626,13.1856585 L85.7878377,13.1856585 L85.7878377,12.2750246 L86.3758899,12.2750246 C86.4492742,12.2750246 86.5252676,12.2803833 86.6019134,12.2914355 C86.6779068,12.3021528 86.744768,12.3229175 86.8038015,12.3537297 C86.8628351,12.3842069 86.9101271,12.4280808 86.9469823,12.4846814 C86.9851421,12.5412821 87.0037328,12.6179776 87.0037328,12.7137633 C87.0037328,12.8272994 86.9828591,12.9163868 86.9404593,12.9793508 C86.8996903,13.0426498 86.8439182,13.0898728 86.7744478,13.12035 C86.7049774,13.1508273 86.6250702,13.1692476 86.5357045,13.1759459 C86.4463388,13.1826442 86.3514285,13.1856585 86.251626,13.1856585 M87.2320393,13.3005343 C87.3761985,13.1802998 87.447952,12.9914078 87.447952,12.7335232 C87.447952,12.4585581 87.3667401,12.2529203 87.2026856,12.1176146 C87.0392834,11.981974 86.7868416,11.9146561 86.4482957,11.9146561 L85.34264,11.9146561 L85.34264,14.7778443 L85.7878377,14.7778443 L85.7878377,13.546027 L86.2578229,13.546027 L87.0353695,14.7778443 L87.5138347,14.7778443 L86.6968236,13.5135402 C86.9091487,13.4917708 87.08788,13.4207688 87.2320393,13.3005343" id="Fill-20" fill="#FFFFFF"></path>
                </g>
            </g>
        </g>
    </g>
</svg>