<?xml version="1.0" encoding="UTF-8"?>
<svg width="110px" height="35px" viewBox="0 0 110 35" version="1.1" xmlns="http://www.w3.org/2000/svg" xmlns:xlink="http://www.w3.org/1999/xlink">
    <!-- Generator: Sketch 45.2 (43514) - http://www.bohemiancoding.com/sketch -->
    <title>LOGO Copy 6</title>
    <desc>Created with Sketch.</desc>
    <defs>
        <polygon id="path-1" points="0.00335989793 34.7129012 63.5955152 34.7129012 63.5955152 0.0880645831 0.00335989793 0.0880645831 0.00335989793 34.7129012"></polygon>
    </defs>
    <g id="Page-1" stroke="none" stroke-width="1" fill="none" fill-rule="evenodd">
        <g id="e-conolight-style-guide-copy" transform="translate(-15.000000, -48.000000)">
            <g id="LOGO-Copy-6" transform="translate(15.000000, 48.000000)">
                <g id="Group-3" transform="translate(46.000000, 0.000000)">
                    <mask id="mask-2" fill="white">
                        <use xlink:href="#path-1"></use>
                    </mask>
                    <g id="Clip-2"></g>
                    <path d="M63.5955843,17.4012154 L63.5955843,17.3998201 C63.5948939,7.83876393 47.5910406,0.0880645831 27.84925,0.0880645831 C16.5916003,0.0880645831 6.55553709,2.61070444 0.00335989793,6.54953869 C5.35914861,5.27182439 11.61965,4.53582189 18.31266,4.53582189 C38.055141,4.53582189 54.0593395,10.9247422 54.0593395,18.8058989 C54.0593395,26.6867067 38.055141,33.0759758 18.31266,33.0759758 C16.0206751,33.0759758 13.7821929,32.98633 11.609985,32.8220375 C16.4842498,34.0282445 22.0002013,34.712971 27.84925,34.712971 C47.5910406,34.712971 63.5948939,26.9622716 63.5955843,17.4012154" id="Fill-1" fill="#1647AC" mask="url(#mask-2)"></path>
                </g>
                <path d="M85.9393298,15.5933604 L85.9393298,12 L83.2363316,13.5716984 L83.2363316,15.5933604 L82,15.5933604 L82,17.7398554 L83.2363316,17.7398554 L83.2363316,22.176721 C83.2363316,23.1284854 83.264903,23.7611143 83.3227513,24.0739024 C83.3929453,24.5146974 83.519224,24.8645122 83.7012346,25.123347 C83.8832451,25.3818292 84.1693122,25.5927055 84.5590829,25.7556233 C84.9488536,25.9185411 85.3865961,26 85.8719577,26 C86.6645503,26 87.373545,25.8659983 88,25.5976424 L87.7700176,23.508627 C87.2973545,23.6807133 86.9361552,23.7671091 86.6871252,23.7671091 C86.5079365,23.7671091 86.356261,23.722677 86.231746,23.6331075 C86.107231,23.5435379 86.0271605,23.4303418 85.9918871,23.2928138 C85.9566138,23.1556384 85.9393298,22.6718219 85.9393298,21.8413642 L85.9393298,17.7398554 L87.7795414,17.7398554 L87.7795414,15.5933604 L85.9393298,15.5933604 Z" id="Fill-4" fill="#1647AC"></path>
                <path d="M71,11 L71,25 L73.6153671,25 L73.6153671,19.9193463 C73.6153671,19.0664207 73.6941432,18.4218942 73.8527229,17.9854156 C74.0106177,17.5496398 74.2606462,17.2231594 74.601781,17.0066772 C74.9429159,16.7905465 75.3309739,16.681954 75.76527,16.681954 C76.1437379,16.681954 76.4584998,16.7662977 76.7098984,16.9349851 C76.961297,17.1040239 77.1363169,17.3314005 77.2359858,17.6178176 C77.3349697,17.9042348 77.3846329,18.5793358 77.3846329,19.6424179 L77.3846329,25 L80,25 L80,19.0502548 C80,18.1400457 79.9547894,17.468459 79.8650531,17.0351432 C79.7749743,16.6025303 79.6074894,16.2078721 79.3625985,15.8511685 C79.117365,15.4948164 78.7529398,15.201722 78.2689805,14.9725883 C77.7850211,14.7434546 77.2418084,14.6288877 76.6400274,14.6288877 C75.4672908,14.6288877 74.4589565,15.1349499 73.6153671,16.1470743 L73.6153671,11 L71,11 Z" id="Fill-6" fill="#1647AC"></path>
                <path d="M65.650682,22.1845814 C65.1935209,22.6797419 64.6337028,22.9273221 63.9712276,22.9273221 C63.3535095,22.9273221 62.8338306,22.685855 62.412191,22.2029207 C61.9909065,21.7199864 61.7802643,20.9585668 61.7802643,19.9186619 C61.7802643,18.928341 61.9909065,18.1917134 62.412191,17.7084395 C62.8338306,17.2255052 63.369139,16.984038 64.0195368,16.984038 C64.6884058,16.984038 65.2421853,17.2302598 65.6794544,17.7223637 C66.1170787,18.2144677 66.3358909,18.9684157 66.3358909,19.9835286 C66.3358909,20.9558499 66.1074879,21.689421 65.650682,22.1845814 L65.650682,22.1845814 Z M66.4612816,15.2214298 L66.4612816,16.5965359 C65.6375391,15.5321786 64.5917874,15 63.3243819,15 C62.0953396,15 61.0669935,15.4336899 60.2404092,16.3014094 C59.4134697,17.1687893 59,18.4240109 59,20.066395 C59,21.376974 59.3150753,22.4722364 59.9459363,23.3518424 C60.7501421,24.465444 61.841006,25.0224147 63.2181728,25.0224147 C64.453609,25.0224147 65.4769821,24.492953 66.2879369,23.4350484 L66.2879369,24.865512 C66.2879369,25.4435388 66.2460216,25.8405502 66.162191,26.0558669 C66.0399972,26.3574461 65.8595482,26.5758193 65.6219096,26.7113262 C65.2677607,26.9144167 64.7370702,27.0156223 64.0291276,27.0156223 C63.4753481,27.0156223 63.0700483,26.9235863 62.812873,26.7388351 C62.6260301,26.6097809 62.5070332,26.3727288 62.4558824,26.0280183 L59.3573458,25.6683647 C59.350952,25.7913058 59.3473998,25.8959076 59.3473998,25.9821701 C59.3473998,26.8556631 59.7111395,27.577008 60.4382637,28.1462048 C61.1653879,28.715062 62.3976272,29 64.1353367,29 C65.0553424,29 65.816212,28.9076244 66.4179454,28.7228732 C67.0196789,28.5384615 67.5006394,28.2830701 67.8611822,27.9570385 C68.2213697,27.631007 68.5012788,27.1816947 68.7009093,26.6097809 C68.9001847,26.037188 69,25.1728647 69,24.0164714 L69,15.2214298 L66.4612816,15.2214298 Z" id="Fill-8" fill="#1647AC"></path>
                <path d="M55,13.48293 L58,13.48293 L58,11 L55,11 L55,13.48293 Z M55,25 L58,25 L58,14.8581183 L55,14.8581183 L55,25 Z" id="Fill-10" fill="#1647AC"></path>
                <polygon id="Fill-12" fill="#1647AC" points="50 25 53 25 53 11 50 11"></polygon>
                <path d="M45.7891224,23.5259755 C45.3020655,24.197361 44.7186795,24.5332361 44.0389646,24.5332361 C43.3137909,24.5332361 42.7058717,24.2010079 42.2155678,23.5361867 C41.7252638,22.8713656 41.4802922,21.8575407 41.4802922,20.4950767 C41.4802922,19.1457415 41.7220168,18.1366575 42.2058266,17.4685542 C42.6892757,16.8004509 43.2744656,16.4663992 43.9606747,16.4663992 C44.6862091,16.4663992 45.2937675,16.7989921 45.7840714,17.4638133 C46.2743754,18.1286344 46.519347,19.1391771 46.519347,20.4950767 C46.519347,21.844412 46.2758185,22.8545901 45.7891224,23.5259755 M46.8527104,16.3872625 C46.0882114,15.4624208 45.1371877,15 44,15 C42.8429692,15 41.8872553,15.4624208 41.1321367,16.3872625 C40.3773789,17.3121042 40,18.6833206 40,20.4998177 C40,22.310115 40.3802652,23.679508 41.1418779,24.6072672 C41.9031298,25.5357557 42.8559574,26 44,26 C45.1631641,26 46.1206819,25.5375792 46.8725534,24.6123728 C47.6240642,23.6875311 48,22.2802109 48,20.3907768 C48,18.6464874 47.6175701,17.3121042 46.8527104,16.3872625" id="Fill-13" fill="#000000"></path>
                <path d="M33.4556007,25 L33.4556007,19.653519 C33.4556007,18.47362 33.6632834,17.6410491 34.0793775,17.1554675 C34.4951072,16.6702247 35.0529357,16.4272644 35.7524984,16.4272644 C36.121955,16.4272644 36.4469602,16.5177391 36.7278784,16.6990275 C37.0080679,16.8803158 37.2142932,17.1371692 37.3465542,17.4689099 C37.478451,17.8006506 37.5447637,18.3258785 37.5447637,19.0449324 L37.5447637,25 L39,25 L39,18.9869879 C39,18.0846125 38.94061,17.4157094 38.8218301,16.9796008 C38.7034145,16.5438311 38.5237872,16.189387 38.2836769,15.9162685 C38.0428378,15.64315 37.7265771,15.4222154 37.3345305,15.253126 C36.9424839,15.0843753 36.5158234,15 36.0545492,15 C35.4613783,15 34.9359775,15.1328318 34.4783469,15.3984955 C34.0203519,15.6638203 33.6330418,16.0653655 33.3167812,16.6024533 L33.3167812,15.2209346 L32,15.2209346 L32,25 L33.4556007,25 Z" id="Fill-14" fill="#000000"></path>
                <path d="M27.7891224,23.5259755 C27.3020655,24.197361 26.7190403,24.5332361 26.0393253,24.5332361 C25.3137909,24.5332361 24.7058717,24.2010079 24.2155678,23.5361867 C23.7256246,22.8713656 23.480653,21.8575407 23.480653,20.4950767 C23.480653,19.1457415 23.7220168,18.1366575 24.2058266,17.4685542 C24.6896365,16.8004509 25.2744656,16.4663992 25.9606747,16.4663992 C26.6865699,16.4663992 27.2941283,16.7989921 27.7840714,17.4638133 C28.2747362,18.1286344 28.5197078,19.1391771 28.5197078,20.4950767 C28.5197078,21.844412 28.2761793,22.8545901 27.7891224,23.5259755 M28.8530712,16.3872625 C28.0882114,15.4624208 27.1375485,15 26,15 C24.84333,15 23.8872553,15.4624208 23.1324975,16.3872625 C22.3777397,17.3121042 22,18.6833206 22,20.4998177 C22,22.310115 22.380626,23.679508 23.1422387,24.6072672 C23.9034906,25.5357557 24.8559574,26 26,26 C27.1631641,26 28.1210427,25.5375792 28.8725534,24.6123728 C29.6240642,23.6875311 30,22.2802109 30,20.3907768 C30,18.6464874 29.6175701,17.3121042 28.8530712,16.3872625" id="Fill-15" fill="#000000"></path>
                <path d="M18.9663515,23.8940127 C18.6004848,24.3203156 18.1592727,24.5332847 17.6427152,24.5332847 C16.9849697,24.5332847 16.4453333,24.2131017 16.0244848,23.5720064 C15.6029576,22.9312757 15.3925333,21.8941453 15.3925333,20.4606153 C15.3925333,19.0730341 15.6124606,18.0607015 16.0519758,17.4232529 C16.4914909,16.7858043 17.0464,16.4667153 17.716703,16.4667153 C18.1653818,16.4667153 18.5495758,16.6424877 18.8696242,16.9943973 C19.1889939,17.3463069 19.4136727,17.8772709 19.5429818,18.5876542 L20.8615273,18.3298303 C20.7016727,17.22013 20.3371636,16.3875812 19.7686788,15.8325487 C19.1998545,15.2775162 18.500703,15 17.6705455,15 C16.5946667,15 15.7136,15.4576648 15.0280242,16.3726296 C14.3424485,17.2875945 14,18.6602241 14,20.4901538 C14,22.3069553 14.3397333,23.6795849 15.0188606,24.6073134 C15.6983273,25.5357711 16.5637818,26 17.6152242,26 C18.4820364,26 19.2242909,25.6696062 19.8423273,25.0088185 C20.4603636,24.3483954 20.8462545,23.3903992 21,22.1348296 L19.6627879,21.9069089 C19.5643636,22.8054635 19.3322182,23.4677099 18.9663515,23.8940127" id="Fill-16" fill="#000000"></path>
                <path d="M4.1347326,24.5332361 C3.43082352,24.5332361 2.83286742,24.2327355 2.34159754,23.6313696 C1.84996105,23.0303683 1.57426332,22.1383483 1.51450438,20.9556742 L7.99010128,20.9556742 L8,20.4801247 C8,18.7030136 7.62494844,17.3452906 6.87447871,16.4073202 C6.12400898,15.4689852 5.18729664,15 4.06470831,15 C2.8893268,15 1.91778562,15.4770083 1.15118464,16.4317541 C0.383850419,17.3865 0,18.7723038 0,20.5891655 C0,22.3396545 0.380550846,23.679508 1.14128592,24.6076319 C1.90128775,25.5357557 2.89592594,26 4.12483388,26 C5.1011411,26 5.91943541,25.7140868 6.58045003,25.1426251 C7.24146464,24.5711633 7.69790569,23.7239996 7.95050639,22.6007692 L6.43600202,22.3728409 C6.00412447,23.8129828 5.23715687,24.5332361 4.1347326,24.5332361 M2.37129371,17.2843882 C2.836167,16.7391838 3.39746116,16.4663992 4.05480959,16.4663992 C4.78548188,16.4663992 5.38637093,16.7935219 5.85820998,17.4477671 C6.18340131,17.8970593 6.37954264,18.5771972 6.44590074,19.4889103 L1.60432611,19.4889103 C1.65052014,18.5644332 1.90642042,17.8292279 2.37129371,17.2843882" id="Fill-17" fill="#000000"></path>
                <polygon id="Fill-18" fill="#000000" points="9 21 13 21 13 20 9 20"></polygon>
                <path d="M91.5066348,15.6380431 C91.2133758,15.6380431 90.9416799,15.5839891 90.6912155,15.4745125 C90.4407511,15.365378 90.2234607,15.2145056 90.0396762,15.0225795 C89.85556,14.8306534 89.7119161,14.6045159 89.6087447,14.3431406 C89.5035828,14.0821074 89.452163,13.7974684 89.452163,13.4899076 C89.452163,13.1905576 89.5035828,12.9117345 89.6087447,12.652754 C89.7119161,12.3941156 89.85556,12.1696887 90.0396762,11.9804995 C90.2234607,11.7906261 90.4407511,11.6411221 90.6912155,11.5316456 C90.9416799,11.4225111 91.2133758,11.368115 91.5066348,11.368115 C91.7942542,11.368115 92.0619692,11.4225111 92.3104432,11.5316456 C92.5582537,11.6411221 92.7745488,11.7906261 92.9583333,11.9804995 C93.1427813,12.1696887 93.2870886,12.3941156 93.3909236,12.652754 C93.4947585,12.9117345 93.5471736,13.1905576 93.5471736,13.4899076 C93.5471736,13.7974684 93.4947585,14.0821074 93.3909236,14.3431406 C93.2870886,14.6045159 93.1427813,14.8306534 92.9583333,15.0225795 C92.7745488,15.2145056 92.5582537,15.365378 92.3104432,15.4745125 C92.0619692,15.5839891 91.7942542,15.6380431 91.5066348,15.6380431 M93.2602176,15.2870339 C93.4871285,15.0615806 93.6669321,14.7960999 93.7996285,14.4905919 C93.9333201,14.1850838 94,13.8515224 94,13.4905919 L94,13.4899076 C94,13.1368457 93.9333201,12.8091002 93.7996285,12.5056449 C93.6669321,12.2021895 93.4871285,11.9391037 93.2602176,11.715703 C93.0346338,11.4929867 92.7715632,11.317482 92.4696789,11.1905576 C92.1691215,11.0632911 91.8479963,11 91.5066348,11 C91.1642781,11 90.8421576,11.0632911 90.5382829,11.1905576 C90.2354034,11.317482 89.9690154,11.4929867 89.7411093,11.715703 C89.5132033,11.9391037 89.3324045,12.2021895 89.1987128,12.5056449 C89.0660165,12.8094424 89,13.1371878 89,13.4899076 C89,13.8511803 89.0660165,14.1850838 89.1987128,14.4905919 C89.3324045,14.7960999 89.5132033,15.0615806 89.7411093,15.2870339 C89.9690154,15.5124872 90.2354034,15.6873076 90.5382829,15.8121793 C90.8421576,15.9373931 91.1642781,16 91.5066348,16 C91.8479963,16 92.1691215,15.9373931 92.4696789,15.8121793 C92.7715632,15.6873076 93.0346338,15.5124872 93.2602176,15.2870339" id="Fill-19" fill="#1647AC"></path>
                <path d="M91.8373141,13.3317347 L91.4100946,13.3317347 L91.4100946,12.377588 L91.9517801,12.377588 C92.0193781,12.377588 92.0893796,12.3832027 92.159982,12.394783 C92.2299835,12.4060124 92.2915728,12.4277693 92.3459516,12.4600538 C92.4003305,12.4919874 92.4438936,12.5379577 92.4778429,12.5972628 C92.5129938,12.656568 92.5301187,12.7369283 92.5301187,12.8372909 C92.5301187,12.9562522 92.5108908,13.0495964 92.4718342,13.1155691 C92.4342797,13.1818926 92.3829052,13.2313721 92.3189124,13.2633056 C92.2549196,13.2952392 92.1813129,13.3145397 92.0989935,13.3215581 C92.0166742,13.3285764 91.9292474,13.3317347 91.8373141,13.3317347 M92.7404236,13.4520997 C92.8732162,13.32612 92.939312,13.1282021 92.939312,12.8579951 C92.939312,12.5698912 92.8645035,12.3544274 92.7133844,12.2126565 C92.5628662,12.0705346 92.330329,12 92.0184768,12 L91,12 L91,15 L91.4100946,15 L91.4100946,13.7093227 L91.8430224,13.7093227 L92.5592609,15 L93,15 L92.2474087,13.6752837 C92.4429923,13.652474 92.6076311,13.5780793 92.7404236,13.4520997" id="Fill-20" fill="#1647AC"></path>
            </g>
        </g>
    </g>
</svg>